<?xml version="1.0" standalone="no"?>
<!DOCTYPE svg PUBLIC "-//W3C//DTD SVG 20010904//EN"
 "http://www.w3.org/TR/2001/REC-SVG-20010904/DTD/svg10.dtd">
<svg version="1.0" xmlns="http://www.w3.org/2000/svg"
 width="512.000000pt" height="512.000000pt" viewBox="0 0 512.000000 512.000000"
 preserveAspectRatio="xMidYMid meet">

<g transform="translate(0.000000,512.000000) scale(0.100000,-0.100000)"
fill="#000000" stroke="none">
<path d="M3948 3181 l-33 -29 -5 -234 c-5 -223 -6 -235 -28 -271 -23 -37 -67
-75 -107 -93 -11 -5 -241 -11 -512 -14 l-491 -5 -44 -30 c-23 -17 -54 -51 -68
-75 -22 -40 -25 -59 -29 -175 -4 -159 8 -218 55 -273 66 -77 -2 -73 1116 -70
l996 3 44 30 c60 43 88 96 88 168 0 32 -6 72 -14 90 -16 38 -818 976 -850 994
-38 22 -83 15 -118 -16z"/>
</g>
</svg>
