<?xml version="1.0" standalone="no"?>
<!DOCTYPE svg PUBLIC "-//W3C//DTD SVG 20010904//EN"
 "http://www.w3.org/TR/2001/REC-SVG-20010904/DTD/svg10.dtd">
<svg version="1.0" xmlns="http://www.w3.org/2000/svg"
 width="512.000000pt" height="512.000000pt" viewBox="0 0 512.000000 512.000000"
 preserveAspectRatio="xMidYMid meet">

<g transform="translate(0.000000,512.000000) scale(0.100000,-0.100000)"
fill="#000000" stroke="none">
<path d="M1025 5109 c-439 -56 -822 -372 -963 -794 -58 -173 -56 -116 -59
-1297 l-4 -1088 471 0 c258 0 470 2 470 4 0 3 -9 20 -20 39 l-20 34 197 155
c152 118 200 161 208 186 7 21 8 62 2 123 -6 58 -6 125 1 182 6 60 6 100 0
119 -7 19 -70 75 -201 179 -116 91 -192 158 -191 168 1 21 329 584 343 589 6
2 115 -38 241 -88 262 -104 245 -103 352 -27 35 25 109 68 165 96 78 40 104
59 113 81 6 15 24 133 38 262 l27 233 357 3 358 2 5 -22 c2 -13 18 -122 35
-242 18 -134 36 -228 45 -243 9 -12 55 -43 103 -67 48 -24 125 -69 172 -100
56 -38 94 -56 115 -56 17 0 132 40 255 90 123 49 224 89 226 87 13 -16 337
-582 340 -595 3 -12 -50 -59 -187 -166 -135 -105 -195 -158 -204 -180 -9 -23
-10 -54 -3 -124 6 -55 7 -127 1 -181 -5 -49 -5 -102 -1 -118 6 -22 36 -52 115
-114 60 -46 150 -117 201 -157 l93 -73 -21 -33 c-11 -19 -20 -36 -20 -40 0 -3
212 -6 470 -6 l471 0 -4 1088 c-4 1201 0 1123 -68 1320 -61 175 -154 316 -296
453 -190 182 -409 286 -673 319 -105 13 -2953 12 -3055 -1z"/>
<path d="M2443 3185 c-235 -43 -436 -230 -499 -466 -20 -77 -23 -222 -5 -299
52 -223 241 -416 466 -475 76 -19 233 -19 310 0 172 44 335 176 412 335 23 47
47 110 54 140 17 77 15 222 -6 300 -61 235 -264 423 -503 466 -93 16 -135 16
-229 -1z"/>
</g>
</svg>
